<svg width="360" height="600" viewBox="0 0 360 600" xmlns="http://www.w3.org/2000/svg" style="font-family: sans-serif;">
  <defs>
    <!-- Gölge filtresi -->
    <filter id="shadow" x="-20%" y="-20%" width="140%" height="140%">
      <feDropShadow dx="0" dy="10" stdDeviation="14" flood-color="#000" flood-opacity="0.15"/>
    </filter>

    <!-- Blur ve parlaklık efekti -->
    <filter id="blur-bg" x="-10%" y="-10%" width="120%" height="120%">
      <feGaussianBlur stdDeviation="20" result="blur"/>
      <feComponentTransfer>
        <feFuncA type="linear" slope="0.2"/>
      </feComponentTransfer>
      <feMerge>
        <feMergeNode in="blur"/>
        <feMergeNode in="SourceGraphic"/>
      </feMerge>
    </filter>
  </defs>

  <!-- Arka plan -->
  <rect width="100%" height="100%" fill="white"/>

  <!-- İç ekran (cam görünümlü panel) -->
  <g filter="url(#shadow)">
    <rect x="20" y="20" rx="24" ry="24" width="320" height="560" fill="rgba(255,255,255,0.6)" style="backdrop-filter: blur(20px);" filter="url(#blur-bg)" />
  </g>

  <!-- Başlık -->
  <text x="44" y="60" font-size="20" font-weight="bold" fill="#222">Token List</text>
  <rect x="250" y="38" rx="12" ry="12" width="80" height="28" fill="#ffe5ed"/>
  <text x="260" y="58" font-size="12" fill="#e44">98 tokens</text>

  <!-- Arama Kutusu -->
  <rect x="44" y="80" width="270" height="40" rx="10" fill="#f6f6f6"/>
  <text x="56" y="106" font-size="14" fill="#999">Search tokens...</text>

  <!-- Favorites -->
  <rect x="44" y="130" width="100" height="30" rx="8" fill="white" stroke="#ddd"/>
  <text x="64" y="150" font-size="14" fill="#333">★ Favorites</text>

  <!-- Token Entries -->
  <g font-size="14" fill="#111">
    <g transform="translate(44, 180)">
      <circle cx="18" cy="18" r="18" fill="#ffcc00"/>
      <text x="50" y="12" font-weight="bold">PEPPER</text>
      <text x="50" y="30" font-size="12" fill="#555">PEPPER</text>
      <text x="230" y="20" fill="#000">250322</text>
    </g>

    <g transform="translate(44, 230)">
      <circle cx="18" cy="18" r="18" fill="#ff6666"/>
      <text x="50" y="12" font-weight="bold">CHZ</text>
      <text x="50" y="30" font-size="12" fill="#555">CHZ</text>
      <text x="230" y="20" fill="#000">651.413</text>
    </g>

    <g transform="translate(44, 280)">
      <circle cx="18" cy="18" r="18" fill="#ff3e96"/>
      <text x="50" y="12" font-weight="bold">KWL</text>
      <text x="50" y="30" font-size="12" fill="#555">KEWL EXCHANGE</text>
      <text x="230" y="20" fill="#000">300.219</text>
    </g>

    <g transform="translate(44, 330)">
      <circle cx="18" cy="18" r="18" fill="#3399ff"/>
      <text x="50" y="12" font-weight="bold">WNOV</text>
      <text x="50" y="30" font-size="12" fill="#555">Wrapped Novara Calci...</text>
      <text x="230" y="20" fill="#000">1.04262</text>
    </g>

    <g transform="translate(44, 380)">
      <circle cx="18" cy="18" r="18" fill="#3366cc"/>
      <text x="50" y="12" font-weight="bold">WBAR</text>
      <text x="50" y="30" font-size="12" fill="#555">Wrapped FC Barcelona...</text>
      <text x="230" y="20" fill="#000">0.0021</text>
    </g>
  </g>

  <!-- Footer: Token Information -->
  <text x="44" y="440" font-size="16" font-weight="bold" fill="#333">Token Information</text>
  <text x="44" y="470" font-size="14" fill="#666">Name</text>
  <text x="120" y="470" font-size="14" fill="#000">Wrapped Inter Milan</text>
  <text x="44" y="490" font-size="14" fill="#666">Decimals</text>
  <text x="120" y="490" font-size="14" fill="#000">18</text>
  <text x="220" y="470" font-size="14" fill="#666">Symbol</text>
  <text x="280" y="470" font-size="14" fill="#000">WINTER</text>
  <text x="220" y="490" font-size="14" fill="#666">Contract</text>
  <text x="280" y="490" font-size="14" fill="#000">0xc587...3730</text>
</svg>