<?xml version="1.0" encoding="utf-8"?>
<!-- Generator: Adobe Illustrator 27.4.1, SVG Export Plug-In . SVG Version: 6.00 Build 0)  -->
<svg version="1.1" id="Layer_1" xmlns="http://www.w3.org/2000/svg" xmlns:xlink="http://www.w3.org/1999/xlink" x="0px" y="0px"
	 viewBox="0 0 80 80" style="enable-background:new 0 0 80 80;" xml:space="preserve">
<style type="text/css">
	.st0{fill:#084EFC;}
	.st1{fill:#FFFFFF;}
</style>
<g>
	<g>
		<circle class="st0" cx="40" cy="40" r="40"/>
		<path class="st1" d="M63.4,60.2c-8-0.9-15.1-2.7-20.9-5.8c-1.3-0.7-1.5-2.5-0.3-3.3c5.6-4.4,8.8-10,8.8-16.6c0-5.4-3-9.7-11.1-9.7
			s-11.1,4.3-11.1,9.7c0,6.6,3.3,12.2,8.8,16.6c1.1,0.9,1,2.7-0.3,3.3c-5.7,3-12.8,4.9-20.9,5.8c-4.9,0.5-8.3-4.7-5.8-9L34.8,9.7
			c2.3-4,8.1-4,10.4,0l24.1,41.5C71.7,55.5,68.3,60.7,63.4,60.2z M41.6,43.4c0.1-0.8,0.4-2.7,1.8-4c1.5-1.3,3.6-1.5,4.6-1.6
			c0.2,0,0.4,0.2,0.4,0.4c-0.1,0.8-0.4,2.7-1.8,4c-1.5,1.3-3.6,1.5-4.6,1.6C41.8,43.9,41.6,43.7,41.6,43.4z M38.4,43.4
			c0,0.2-0.2,0.4-0.4,0.4c-0.9,0-3.1-0.3-4.6-1.6c-1.4-1.3-1.7-3.1-1.8-4c0-0.2,0.2-0.4,0.4-0.4c0.9,0,3.1,0.3,4.6,1.6
			C38,40.7,38.3,42.6,38.4,43.4z"/>
	</g>
</g>
</svg>
