<svg width="24" height="24" viewBox="0 0 24 24" fill="none" xmlns="http://www.w3.org/2000/svg">
<rect width="24" height="24" rx="12" fill="url(#paint0_radial_11451_1823)"/>
<path fill-rule="evenodd" clip-rule="evenodd" d="M18.6267 7.02429C18.827 7.02429 18.9811 7.18864 18.9759 7.3838C18.9092 9.65897 18.221 11.8006 17.0141 13.4389C15.689 15.2467 13.8966 16.238 11.9758 16.238C10.5583 16.238 9.21276 15.6987 8.07261 14.6921C7.96989 14.5945 7.92881 14.4456 7.97503 14.312C8.10342 13.9422 8.25236 13.593 8.42698 13.2592C8.53483 13.0486 8.81217 13.0075 8.97651 13.1719C9.82906 14.009 10.8614 14.502 11.9758 14.502C13.4755 14.502 14.8313 13.6084 15.7917 12.1807C14.8313 10.7529 13.4755 9.85927 11.9758 9.85927C9.14599 9.85927 6.82974 13.0332 6.70648 17.0032C6.70135 17.1881 6.54727 17.337 6.36238 17.337H5.32495C5.12465 17.337 4.97057 17.1727 4.97571 16.9775C5.02707 15.2467 5.43793 13.593 6.16208 12.1807C5.43793 10.7683 5.02707 9.11971 4.97571 7.3838C4.97057 7.18864 5.12979 7.02429 5.32495 7.02429H6.36238C6.54727 7.02429 6.70135 7.17323 6.70648 7.35812C6.74243 8.47773 6.953 9.53057 7.2971 10.4704C8.58105 8.95536 10.2245 8.12849 11.9758 8.12849C13.7271 8.12849 15.3706 8.95536 16.6546 10.4704C17.0038 9.53057 17.2092 8.47773 17.2452 7.35812C17.2503 7.17323 17.4044 7.02429 17.5893 7.02429H18.6267ZM17.8203 13.6547L17.8203 13.6547C17.9847 13.4133 18.3442 13.4698 18.4315 13.7471C18.7602 14.7589 18.9451 15.8528 18.9759 16.9775C18.981 17.1727 18.8218 17.337 18.6267 17.337H17.5892C17.4043 17.337 17.2503 17.1881 17.2451 17.0032C17.2246 16.2842 17.127 15.5909 16.9729 14.9386C16.9472 14.8256 16.9781 14.7075 17.0551 14.6202C17.2605 14.3942 17.4557 14.158 17.6457 13.9012C17.7073 13.819 17.7638 13.7369 17.8203 13.6547Z" fill="white"/>
<defs>
<radialGradient id="paint0_radial_11451_1823" cx="0" cy="0" r="1" gradientUnits="userSpaceOnUse" gradientTransform="translate(19 25.5) rotate(-106.22) scale(28.64 38.4604)">
<stop stop-color="#5556FA"/>
<stop offset="0.192708" stop-color="#4E59FB"/>
<stop offset="0.395833" stop-color="#5257FA"/>
<stop offset="0.70445" stop-color="#B432F5"/>
<stop offset="0.853955" stop-color="#D82FFA"/>
<stop offset="1" stop-color="#C530F7"/>
</radialGradient>
</defs>
</svg>
