<svg width="400" height="400" viewBox="0 0 400 400" fill="none" xmlns="http://www.w3.org/2000/svg">
<rect width="400" height="400" rx="200" fill="url(#paint0_linear_504_699)"/>
<g clip-path="url(#clip0_504_699)">
<mask id="mask0_504_699" style="mask-type:luminance" maskUnits="userSpaceOnUse" x="-266" y="26" width="932" height="349">
<path d="M289.7 191.507C289.7 191.708 289.707 191.907 289.718 192.103V236.503C289.707 236.702 289.7 236.897 289.7 237.096V328.538C289.7 336.274 282.653 342.605 274.037 342.605C265.423 342.605 258.374 336.274 258.374 328.538V100.068C258.374 92.3344 265.423 86.0029 274.037 86.0029C282.653 86.0029 289.7 92.3317 289.7 100.068V191.507ZM524.89 200.019H524.397C515.916 200.019 508.98 206.939 508.98 215.397V215.401C508.98 223.861 515.916 230.781 524.397 230.781H524.89C533.37 230.781 540.306 223.861 540.306 215.401V215.397C540.306 206.939 533.37 200.019 524.89 200.019ZM461.991 174.038C453.376 174.038 446.328 181.071 446.328 189.666V241.131C446.328 249.726 453.376 256.762 461.991 256.762C470.606 256.762 477.654 249.726 477.654 241.131V189.666C477.654 181.071 470.606 174.038 461.991 174.038ZM650.192 200.017H649.7C641.22 200.017 634.284 206.939 634.284 215.397V215.401C634.284 223.858 641.22 230.781 649.7 230.781H650.192C658.671 230.781 665.607 223.858 665.607 215.401V215.397C665.607 206.939 658.671 200.017 650.192 200.017ZM587.543 200.017H587.049C578.568 200.017 571.632 206.939 571.632 215.397V215.401C571.632 223.858 578.568 230.781 587.049 230.781H587.543C596.019 230.781 602.958 223.858 602.958 215.401V215.397C602.958 206.939 596.019 200.017 587.543 200.017ZM125.643 86.0029C117.029 86.0029 109.98 92.3317 109.98 100.068V191.507C109.98 192.348 109.897 193.172 109.737 193.972V234.634C109.897 235.434 109.98 236.257 109.98 237.096V328.538C109.98 336.274 117.029 342.605 125.643 342.605C134.259 342.605 141.306 336.274 141.306 328.538V100.068C141.306 92.3344 134.259 86.0029 125.643 86.0029ZM-62.8131 174.038C-71.4274 174.038 -78.4762 181.071 -78.4762 189.666V241.131C-78.4762 249.726 -71.4274 256.762 -62.8131 256.762C-54.1978 256.762 -47.1501 249.726 -47.1501 241.131V189.666C-47.1501 181.071 -54.1978 174.038 -62.8131 174.038ZM-125.218 200.017H-125.712C-134.189 200.017 -141.127 206.939 -141.127 215.397V215.401C-141.127 223.858 -134.189 230.781 -125.712 230.781H-125.218C-116.738 230.781 -109.802 223.858 -109.802 215.401V215.397C-109.802 206.939 -116.738 200.017 -125.218 200.017ZM-187.073 200.017H-187.565C-196.044 200.017 -202.98 206.939 -202.98 215.397V215.401C-202.98 223.858 -196.044 230.781 -187.565 230.781H-187.073C-178.593 230.781 -171.654 223.858 -171.654 215.401V215.397C-171.654 206.939 -178.593 200.017 -187.073 200.017ZM-249.723 200.017H-250.217C-258.696 200.017 -265.633 206.939 -265.633 215.397V215.401C-265.633 223.858 -258.696 230.781 -250.217 230.781H-249.723C-241.243 230.781 -234.306 223.858 -234.306 215.401V215.397C-234.306 206.939 -241.243 200.017 -249.723 200.017ZM62.9921 143.696C54.3768 143.696 47.329 150.728 47.329 159.323V271.475C47.329 280.069 54.3768 287.102 62.9921 287.102C71.6065 287.102 78.6552 280.069 78.6552 271.475V159.323C78.6552 150.728 71.6065 143.696 62.9921 143.696ZM336.69 136.245C328.075 136.245 321.026 143.277 321.026 151.872V190.07C321.026 190.974 320.949 191.858 320.799 192.717V238.077C320.949 238.94 321.026 239.823 321.026 240.724V278.928C321.026 287.523 328.075 294.556 336.69 294.556C345.305 294.556 352.353 287.523 352.353 278.928V151.872C352.353 143.274 345.305 136.245 336.69 136.245ZM269.596 48.9358V47.5397C269.596 41.5578 265.814 36.4852 260.07 34.7645C241.045 29.0686 220.876 26 199.99 26C179.102 26 158.933 29.0686 139.908 34.7645C134.166 36.4852 130.382 41.5578 130.382 47.5397V48.9358C130.382 53.2973 132.274 57.047 135.782 59.6446C139.291 62.2439 143.438 62.9636 147.621 61.7014C159.931 57.9873 172.799 55.5443 186.068 54.536V360.146C186.068 367.786 192.337 374.034 199.987 374.034H199.99C207.639 374.034 213.91 367.78 213.91 360.146V54.536C227.18 55.5443 240.047 57.9873 252.357 61.7014C256.54 62.9636 260.687 62.2439 264.197 59.6446C267.704 57.047 269.596 53.2973 269.596 48.9358Z" fill="white"/>
</mask>
<g mask="url(#mask0_504_699)">
<path d="M743.141 -37.7438H-343.163V404.021H743.141V-37.7438Z" fill="url(#paint1_radial_504_699)"/>
</g>
</g>
<defs>
<linearGradient id="paint0_linear_504_699" x1="11.9658" y1="199.413" x2="392.023" y2="199.413" gradientUnits="userSpaceOnUse">
<stop stop-color="#0184FF"/>
<stop offset="1" stop-color="#09F9FF"/>
</linearGradient>
<radialGradient id="paint1_radial_504_699" cx="0" cy="0" r="1" gradientUnits="userSpaceOnUse" gradientTransform="translate(199.989 183.138) scale(414.744 413.801)">
<stop stop-color="#020161"/>
<stop offset="0.42197" stop-color="#01023C"/>
<stop offset="0.78" stop-color="#010223"/>
<stop offset="0.9996" stop-color="#01031B"/>
</radialGradient>
<clipPath id="clip0_504_699">
<rect width="337" height="348" fill="white" transform="translate(31 26)"/>
</clipPath>
</defs>
</svg>
